<svg xmlns="http://www.w3.org/2000/svg" viewBox="0 0 512 512" width="512" height="512" preserveAspectRatio="xMidYMid slice" style="width: 100%; height: 100%; transform: translate3d(0px, 0px, 0px);"><defs><clipPath id="__lottie_element_1532"><rect width="512" height="512" x="0" y="0"></rect></clipPath></defs><g clip-path="url(#__lottie_element_1532)"><g transform="matrix(0.08869000524282455,0,0,0.3439199924468994,404.83599853515625,123.56900024414062)" opacity="1.174172851392541e-8" style="display: block;"><g opacity="1" transform="matrix(1,0,0,1,0,0)"><path fill="rgb(255,26,97)" fill-opacity="1" d=" M0,-5 C2.759500026702881,-5 5,-2.759500026702881 5,0 C5,2.759500026702881 2.759500026702881,5 0,5 C-2.759500026702881,5 -5,2.759500026702881 -5,0 C-5,-2.759500026702881 -2.759500026702881,-5 0,-5z"></path></g></g><g transform="matrix(0.4216800034046173,0,0,0.5697299838066101,400.6570129394531,373.10198974609375)" opacity="1.174172851392541e-8" style="display: block;"><g opacity="1" transform="matrix(1,0,0,1,0,0)"><path fill="rgb(255,26,97)" fill-opacity="1" d=" M0,-5 C2.759500026702881,-5 5,-2.759500026702881 5,0 C5,2.759500026702881 2.759500026702881,5 0,5 C-2.759500026702881,5 -5,2.759500026702881 -5,0 C-5,-2.759500026702881 -2.759500026702881,-5 0,-5z"></path></g></g><g transform="matrix(0.7377300262451172,0,0,0.009929999709129333,83.78099822998047,220.2270050048828)" opacity="0.000009863157523000154" style="display: block;"><g opacity="1" transform="matrix(1,0,0,1,0,0)"><path fill="rgb(80,227,194)" fill-opacity="1" d=" M0,-5 C2.759500026702881,-5 5,-2.759500026702881 5,0 C5,2.759500026702881 2.759500026702881,5 0,5 C-2.759500026702881,5 -5,2.759500026702881 -5,0 C-5,-2.759500026702881 -2.759500026702881,-5 0,-5z"></path></g></g><g transform="matrix(0.39211365580558777,0,0,-0.007033593021333218,158.74264526367188,361.4903869628906)" opacity="0.0028511143927016746" style="display: none;"><g opacity="1" transform="matrix(1,0,0,1,0,0)"><path fill="rgb(255,26,97)" fill-opacity="1" d=" M0,-5 C2.759500026702881,-5 5,-2.759500026702881 5,0 C5,2.759500026702881 2.759500026702881,5 0,5 C-2.759500026702881,5 -5,2.759500026702881 -5,0 C-5,-2.759500026702881 -2.759500026702881,-5 0,-5z"></path></g></g><g transform="matrix(-0.27832818031311035,0,0,0.4636304974555969,206.2945556640625,93.08281707763672)" opacity="0.000010554658455106392" style="display: none;"><g opacity="1" transform="matrix(1,0,0,1,0,0)"><path fill="rgb(255,26,97)" fill-opacity="1" d=" M0,-5 C2.759500026702881,-5 5,-2.759500026702881 5,0 C5,2.759500026702881 2.759500026702881,5 0,5 C-2.759500026702881,5 -5,2.759500026702881 -5,0 C-5,-2.759500026702881 -2.759500026702881,-5 0,-5z"></path></g></g><g transform="matrix(0.1668899953365326,0,0,-0.045409999787807465,340.63299560546875,64.93699645996094)" opacity="0.000009195055056920864" style="display: block;"><g opacity="1" transform="matrix(1,0,0,1,0,0)"><path fill="rgb(255,26,97)" fill-opacity="1" d=" M0,-5 C2.759500026702881,-5 5,-2.759500026702881 5,0 C5,2.759500026702881 2.759500026702881,5 0,5 C-2.759500026702881,5 -5,2.759500026702881 -5,0 C-5,-2.759500026702881 -2.759500026702881,-5 0,-5z"></path></g></g><g transform="matrix(0.6072005033493042,0,0,0.24327987432479858,141.33914184570312,163.563232421875)" opacity="0.002885196870809352" style="display: none;"><g opacity="1" transform="matrix(1,0,0,1,0,0)"><path fill="rgb(255,26,97)" fill-opacity="1" d=" M0,-5 C2.759500026702881,-5 5,-2.759500026702881 5,0 C5,2.759500026702881 2.759500026702881,5 0,5 C-2.759500026702881,5 -5,2.759500026702881 -5,0 C-5,-2.759500026702881 -2.759500026702881,-5 0,-5z"></path></g></g><g transform="matrix(0.2700600028038025,0,0,0.34616002440452576,353.1719970703125,314.677001953125)" opacity="1.174172851392541e-8" style="display: block;"><g opacity="1" transform="matrix(1,0,0,1,0,0)"><path fill="rgb(255,26,97)" fill-opacity="1" d=" M0,-5 C2.759500026702881,-5 5,-2.759500026702881 5,0 C5,2.759500026702881 2.759500026702881,5 0,5 C-2.759500026702881,5 -5,2.759500026702881 -5,0 C-5,-2.759500026702881 -2.759500026702881,-5 0,-5z"></path></g></g><g transform="matrix(-0.07906721532344818,0.02114163152873516,-0.11933791637420654,-0.44630977511405945,271.98638916015625,145.8987579345703)" opacity="0.0028397975811950004" style="display: none;"><g opacity="1" transform="matrix(1,0,0,1,-3.4210000038146973,4.043000221252441)"><path fill="rgb(255,228,29)" fill-opacity="1" d=" M0.012000000104308128,10.621000289916992 C0.012000000104308128,10.621000289916992 -5.695000171661377,5.340000152587891 -5.695000171661377,5.340000152587891 C-5.695000171661377,5.340000152587891 -2.556999921798706,-7.376999855041504 -2.556999921798706,-7.376999855041504 C-2.556999921798706,-7.376999855041504 3.1500000953674316,-2.0959999561309814 3.1500000953674316,-2.0959999561309814 C3.1500000953674316,-2.0959999561309814 0.012000000104308128,10.621000289916992 0.012000000104308128,10.621000289916992z"></path></g></g><g transform="matrix(-0.27563032507896423,0.16106535494327545,-0.12296096980571747,-0.21042247116565704,292.4319763183594,308.93365478515625)" opacity="0.000010554658455106392" style="display: none;"><g opacity="1" transform="matrix(1,0,0,1,-3.4210000038146973,4.043000221252441)"><path fill="rgb(255,228,29)" fill-opacity="1" d=" M0.012000000104308128,10.621000289916992 C0.012000000104308128,10.621000289916992 -5.695000171661377,5.340000152587891 -5.695000171661377,5.340000152587891 C-5.695000171661377,5.340000152587891 -2.556999921798706,-7.376999855041504 -2.556999921798706,-7.376999855041504 C-2.556999921798706,-7.376999855041504 3.1500000953674316,-2.0959999561309814 3.1500000953674316,-2.0959999561309814 C3.1500000953674316,-2.0959999561309814 0.012000000104308128,10.621000289916992 0.012000000104308128,10.621000289916992z"></path></g></g><g transform="matrix(-0.13215325772762299,0.2835327684879303,-0.2336433380842209,-0.1089000403881073,66.917724609375,406.00762939453125)" opacity="0.002885196870809352" style="display: none;"><g opacity="1" transform="matrix(1,0,0,1,-3.4210000038146973,4.043000221252441)"><path fill="rgb(80,227,194)" fill-opacity="1" d=" M0.012000000104308128,10.621000289916992 C0.012000000104308128,10.621000289916992 -5.695000171661377,5.340000152587891 -5.695000171661377,5.340000152587891 C-5.695000171661377,5.340000152587891 -2.556999921798706,-7.376999855041504 -2.556999921798706,-7.376999855041504 C-2.556999921798706,-7.376999855041504 3.1500000953674316,-2.0959999561309814 3.1500000953674316,-2.0959999561309814 C3.1500000953674316,-2.0959999561309814 0.012000000104308128,10.621000289916992 0.012000000104308128,10.621000289916992z"></path></g></g><g transform="matrix(-0.3829825222492218,0.033371925354003906,-0.049910109490156174,-0.5727778673171997,111.30657196044922,185.79888916015625)" opacity="0.0028511143927016746" style="display: none;"><g opacity="1" transform="matrix(1,0,0,1,-3.4210000038146973,4.043000221252441)"><path fill="rgb(255,228,29)" fill-opacity="1" d=" M0.012000000104308128,10.621000289916992 C0.012000000104308128,10.621000289916992 -5.695000171661377,5.340000152587891 -5.695000171661377,5.340000152587891 C-5.695000171661377,5.340000152587891 -2.556999921798706,-7.376999855041504 -2.556999921798706,-7.376999855041504 C-2.556999921798706,-7.376999855041504 3.1500000953674316,-2.0959999561309814 3.1500000953674316,-2.0959999561309814 C3.1500000953674316,-2.0959999561309814 0.012000000104308128,10.621000289916992 0.012000000104308128,10.621000289916992z"></path></g></g><g transform="matrix(-0.25873038172721863,0.0691814199090004,-0.049624208360910416,-0.18558871746063232,403.05316162109375,253.12290954589844)" opacity="0.0028397975811950004" style="display: none;"><g opacity="1" transform="matrix(1,0,0,1,-3.4210000038146973,4.043000221252441)"><path fill="rgb(255,228,29)" fill-opacity="1" d=" M0.012000000104308128,10.621000289916992 C0.012000000104308128,10.621000289916992 -5.695000171661377,5.340000152587891 -5.695000171661377,5.340000152587891 C-5.695000171661377,5.340000152587891 -2.556999921798706,-7.376999855041504 -2.556999921798706,-7.376999855041504 C-2.556999921798706,-7.376999855041504 3.1500000953674316,-2.0959999561309814 3.1500000953674316,-2.0959999561309814 C3.1500000953674316,-2.0959999561309814 0.012000000104308128,10.621000289916992 0.012000000104308128,10.621000289916992z"></path></g></g><g transform="matrix(0.15784934163093567,0.18811751902103424,-0.016768712550401688,0.014070620760321617,191.88800048828125,263.7090148925781)" opacity="0.000009863157523000154" style="display: block;"><g opacity="1" transform="matrix(1,0,0,1,-3.4210000038146973,4.043000221252441)"><path fill="rgb(255,228,29)" fill-opacity="1" d=" M0.012000000104308128,10.621000289916992 C0.012000000104308128,10.621000289916992 -5.695000171661377,5.340000152587891 -5.695000171661377,5.340000152587891 C-5.695000171661377,5.340000152587891 -2.556999921798706,-7.376999855041504 -2.556999921798706,-7.376999855041504 C-2.556999921798706,-7.376999855041504 3.1500000953674316,-2.0959999561309814 3.1500000953674316,-2.0959999561309814 C3.1500000953674316,-2.0959999561309814 0.012000000104308128,10.621000289916992 0.012000000104308128,10.621000289916992z"></path></g></g><g transform="matrix(-0.15183928608894348,-0.18095502257347107,0.15716934204101562,-0.1318807303905487,252.5970001220703,197.45599365234375)" opacity="1.174172851392541e-8" style="display: block;"><g opacity="1" transform="matrix(1,0,0,1,-7.381999969482422,-25.677000045776367)"><path fill="rgb(42,182,255)" fill-opacity="1" d=" M6,25.400999069213867 C6,25.400999069213867 11.7149019241333,35.29949951171875 11.7149019241333,35.29949951171875 C11.7149019241333,35.29949951171875 0.2850983738899231,35.29949951171875 0.2850983738899231,35.29949951171875 C0.2850983738899231,35.29949951171875 6,25.400999069213867 6,25.400999069213867z"></path></g></g><g transform="matrix(-0.3262532949447632,-0.3888135254383087,0.5647585988044739,-0.4738887548446655,242.656005859375,426.4389953613281)" opacity="1.174172851392541e-8" style="display: block;"><g opacity="1" transform="matrix(1,0,0,1,-7.381999969482422,-25.677000045776367)"><path fill="rgb(42,182,255)" fill-opacity="1" d=" M6,25.400999069213867 C6,25.400999069213867 11.7149019241333,35.29949951171875 11.7149019241333,35.29949951171875 C11.7149019241333,35.29949951171875 0.2850983738899231,35.29949951171875 0.2850983738899231,35.29949951171875 C0.2850983738899231,35.29949951171875 6,25.400999069213867 6,25.400999069213867z"></path></g></g><g transform="matrix(-0.4475436508655548,0.26152339577674866,-0.26857438683509827,-0.4596099853515625,385.1254577636719,124.22339630126953)" opacity="0.000010554658455106392" style="display: none;"><g opacity="1" transform="matrix(1,0,0,1,-7.381999969482422,-25.677000045776367)"><path fill="rgb(42,182,255)" fill-opacity="1" d=" M6,25.400999069213867 C6,25.400999069213867 11.7149019241333,35.29949951171875 11.7149019241333,35.29949951171875 C11.7149019241333,35.29949951171875 0.2850983738899231,35.29949951171875 0.2850983738899231,35.29949951171875 C0.2850983738899231,35.29949951171875 6,25.400999069213867 6,25.400999069213867z"></path></g></g><g transform="matrix(-0.14532142877578735,-0.17318733036518097,0.2468118667602539,-0.20709975063800812,132.72799682617188,283.69500732421875)" opacity="0.000009195055056920864" style="display: block;"><g opacity="1" transform="matrix(1,0,0,1,-7.381999969482422,-25.677000045776367)"><path fill="rgb(42,182,255)" fill-opacity="1" d=" M6,25.400999069213867 C6,25.400999069213867 11.7149019241333,35.29949951171875 11.7149019241333,35.29949951171875 C11.7149019241333,35.29949951171875 0.2850983738899231,35.29949951171875 0.2850983738899231,35.29949951171875 C0.2850983738899231,35.29949951171875 6,25.400999069213867 6,25.400999069213867z"></path></g></g><g transform="matrix(-0.5059856176376343,0.04409003630280495,-0.025367137044668198,-0.2911180853843689,352.6109619140625,382.607177734375)" opacity="0.0028511143927016746" style="display: none;"><g opacity="1" transform="matrix(1,0,0,1,-7.381999969482422,-25.677000045776367)"><path fill="rgb(42,182,255)" fill-opacity="1" d=" M6,25.400999069213867 C6,25.400999069213867 11.7149019241333,35.29949951171875 11.7149019241333,35.29949951171875 C11.7149019241333,35.29949951171875 0.2850983738899231,35.29949951171875 0.2850983738899231,35.29949951171875 C0.2850983738899231,35.29949951171875 6,25.400999069213867 6,25.400999069213867z"></path></g></g><g transform="matrix(-0.16489429771900177,-0.196513369679451,-0.177477166056633,0.14892102777957916,172.02000427246094,192.79600524902344)" opacity="1.174172851392541e-8" style="display: block;"><g opacity="1" transform="matrix(1,0,0,1,-7.381999969482422,-25.677000045776367)"><path fill="rgb(80,227,194)" fill-opacity="1" d=" M6,25.400999069213867 C6,25.400999069213867 11.7149019241333,35.29949951171875 11.7149019241333,35.29949951171875 C11.7149019241333,35.29949951171875 0.2850983738899231,35.29949951171875 0.2850983738899231,35.29949951171875 C0.2850983738899231,35.29949951171875 6,25.400999069213867 6,25.400999069213867z"></path></g></g><g transform="matrix(0.0007258763653226197,-0.020786380395293236,0.05304783582687378,0.0018524712650105357,400.60009765625,437.941162109375)" opacity="0.000010554658455106392" style="display: none;"><g opacity="1" transform="matrix(1,0,0,1,0,0)"><path fill="rgb(255,26,97)" fill-opacity="1" d=" M0,-5 C2.759500026702881,-5 5,-2.759500026702881 5,0 C5,2.759500026702881 2.759500026702881,5 0,5 C-2.759500026702881,5 -5,2.759500026702881 -5,0 C-5,-2.759500026702881 -2.759500026702881,-5 0,-5z"></path></g></g><g transform="matrix(-0.010011541657149792,0.2866930365562439,0.15270552039146423,0.005332594737410545,147.81472778320312,429.33526611328125)" opacity="0.0028511143927016746" style="display: none;"><g opacity="1" transform="matrix(1,0,0,1,0,0)"><path fill="rgb(255,26,97)" fill-opacity="1" d=" M0,-5 C2.759500026702881,-5 5,-2.759500026702881 5,0 C5,2.759500026702881 2.759500026702881,5 0,5 C-2.759500026702881,5 -5,2.759500026702881 -5,0 C-5,-2.759500026702881 -2.759500026702881,-5 0,-5z"></path></g></g><g transform="matrix(-0.01580502837896347,0.4525968134403229,-0.0344088040292263,-0.001201581908389926,317.3252258300781,107.92180633544922)" opacity="0.002885196870809352" style="display: none;"><g opacity="1" transform="matrix(1,0,0,1,0,0)"><path fill="rgb(255,26,97)" fill-opacity="1" d=" M0,-5 C2.759500026702881,-5 5,-2.759500026702881 5,0 C5,2.759500026702881 2.759500026702881,5 0,5 C-2.759500026702881,5 -5,2.759500026702881 -5,0 C-5,-2.759500026702881 -2.759500026702881,-5 0,-5z"></path></g></g><g transform="matrix(-0.010867702774703503,0.3112103044986725,-0.3193453252315521,-0.011151785030961037,178.18699645996094,175.00599670410156)" opacity="0.000009863157523000154" style="display: block;"><g opacity="1" transform="matrix(1,0,0,1,0,0)"><path fill="rgb(80,227,194)" fill-opacity="1" d=" M0,-5 C2.759500026702881,-5 5,-2.759500026702881 5,0 C5,2.759500026702881 2.759500026702881,5 0,5 C-2.759500026702881,5 -5,2.759500026702881 -5,0 C-5,-2.759500026702881 -2.759500026702881,-5 0,-5z"></path></g></g><g transform="matrix(-0.009670529514551163,0.27692773938179016,-0.20865245163440704,-0.0072863041423261166,443.19671630859375,246.61244201660156)" opacity="0.0028397975811950004" style="display: none;"><g opacity="1" transform="matrix(1,0,0,1,0,0)"><path fill="rgb(255,26,97)" fill-opacity="1" d=" M0,-5 C2.759500026702881,-5 5,-2.759500026702881 5,0 C5,2.759500026702881 2.759500026702881,5 0,5 C-2.759500026702881,5 -5,2.759500026702881 -5,0 C-5,-2.759500026702881 -2.759500026702881,-5 0,-5z"></path></g></g><g transform="matrix(-0.015570945106446743,0.4458935260772705,-0.3479325771331787,-0.012150073423981667,460.0067138671875,378.02032470703125)" opacity="0.003224857091239528" style="display: none;"><g opacity="1" transform="matrix(1,0,0,1,0,0)"><path fill="rgb(80,227,194)" fill-opacity="1" d=" M0,-5 C2.759500026702881,-5 5,-2.759500026702881 5,0 C5,2.759500026702881 2.759500026702881,5 0,5 C-2.759500026702881,5 -5,2.759500026702881 -5,0 C-5,-2.759500026702881 -2.759500026702881,-5 0,-5z"></path></g></g><g transform="matrix(-0.019861828535795212,0.5687683820724487,-0.07468046247959137,-0.0026078992523252964,364.7066955566406,166.2731475830078)" opacity="0.0028738140404679768" style="display: none;"><g opacity="1" transform="matrix(1,0,0,1,0,0)"><path fill="rgb(255,26,97)" fill-opacity="1" d=" M0,-5 C2.759500026702881,-5 5,-2.759500026702881 5,0 C5,2.759500026702881 2.759500026702881,5 0,5 C-2.759500026702881,5 -5,2.759500026702881 -5,0 C-5,-2.759500026702881 -2.759500026702881,-5 0,-5z"></path></g></g><g transform="matrix(-0.018192408606410027,0.5209624171257019,-0.20155712962150574,-0.007038529962301254,199.5590057373047,372.8160095214844)" opacity="1.174172851392541e-8" style="display: block;"><g opacity="1" transform="matrix(1,0,0,1,0,0)"><path fill="rgb(255,26,97)" fill-opacity="1" d=" M0,-5 C2.759500026702881,-5 5,-2.759500026702881 5,0 C5,2.759500026702881 2.759500026702881,5 0,5 C-2.759500026702881,5 -5,2.759500026702881 -5,0 C-5,-2.759500026702881 -2.759500026702881,-5 0,-5z"></path></g></g><g transform="matrix(-0.3826836347579956,-0.4560645818710327,0.2874198853969574,-0.2411739081144333,372.4429931640625,305.7699890136719)" opacity="0.000009195055056920864" style="display: block;"><g opacity="1" transform="matrix(1,0,0,1,-3.4210000038146973,4.043000221252441)"><path fill="rgb(80,227,194)" fill-opacity="1" d=" M0.012000000104308128,10.621000289916992 C0.012000000104308128,10.621000289916992 -5.695000171661377,5.340000152587891 -5.695000171661377,5.340000152587891 C-5.695000171661377,5.340000152587891 -2.556999921798706,-7.376999855041504 -2.556999921798706,-7.376999855041504 C-2.556999921798706,-7.376999855041504 3.1500000953674316,-2.0959999561309814 3.1500000953674316,-2.0959999561309814 C3.1500000953674316,-2.0959999561309814 0.012000000104308128,10.621000289916992 0.012000000104308128,10.621000289916992z"></path></g></g><g transform="matrix(0.007191089913249016,-0.004202133510261774,-0.08537591248750687,-0.14610335230827332,206.73114013671875,319.4443359375)" opacity="0.000010554658455106392" style="display: none;"><g opacity="1" transform="matrix(1,0,0,1,-3.4210000038146973,4.043000221252441)"><path fill="rgb(255,228,29)" fill-opacity="1" d=" M0.012000000104308128,10.621000289916992 C0.012000000104308128,10.621000289916992 -5.695000171661377,5.340000152587891 -5.695000171661377,5.340000152587891 C-5.695000171661377,5.340000152587891 -2.556999921798706,-7.376999855041504 -2.556999921798706,-7.376999855041504 C-2.556999921798706,-7.376999855041504 3.1500000953674316,-2.0959999561309814 3.1500000953674316,-2.0959999561309814 C3.1500000953674316,-2.0959999561309814 0.012000000104308128,10.621000289916992 0.012000000104308128,10.621000289916992z"></path></g></g><g transform="matrix(-0.30833739042282104,0.6615331172943115,-0.08199123293161392,-0.038215719163417816,124.38802337646484,90.41263580322266)" opacity="0.002885196870809352" style="display: none;"><g opacity="1" transform="matrix(1,0,0,1,-3.4210000038146973,4.043000221252441)"><path fill="rgb(80,227,194)" fill-opacity="1" d=" M0.012000000104308128,10.621000289916992 C0.012000000104308128,10.621000289916992 -5.695000171661377,5.340000152587891 -5.695000171661377,5.340000152587891 C-5.695000171661377,5.340000152587891 -2.556999921798706,-7.376999855041504 -2.556999921798706,-7.376999855041504 C-2.556999921798706,-7.376999855041504 3.1500000953674316,-2.0959999561309814 3.1500000953674316,-2.0959999561309814 C3.1500000953674316,-2.0959999561309814 0.012000000104308128,10.621000289916992 0.012000000104308128,10.621000289916992z"></path></g></g><g transform="matrix(-0.1492602378129959,0.5689461827278137,-0.08548808097839355,-0.022427378222346306,346.1817321777344,144.59573364257812)" opacity="0.003224857091239528" style="display: none;"><g opacity="1" transform="matrix(1,0,0,1,-3.4210000038146973,4.043000221252441)"><path fill="rgb(255,228,29)" fill-opacity="1" d=" M0.012000000104308128,10.621000289916992 C0.012000000104308128,10.621000289916992 -5.695000171661377,5.340000152587891 -5.695000171661377,5.340000152587891 C-5.695000171661377,5.340000152587891 -2.556999921798706,-7.376999855041504 -2.556999921798706,-7.376999855041504 C-2.556999921798706,-7.376999855041504 3.1500000953674316,-2.0959999561309814 3.1500000953674316,-2.0959999561309814 C3.1500000953674316,-2.0959999561309814 0.012000000104308128,10.621000289916992 0.012000000104308128,10.621000289916992z"></path></g></g><g transform="matrix(0.036723215132951736,0.13705290853977203,-0.32020947337150574,0.08579987287521362,269.9664611816406,427.0121765136719)" opacity="0.0028738140404679768" style="display: none;"><g opacity="1" transform="matrix(1,0,0,1,-3.4210000038146973,4.043000221252441)"><path fill="rgb(80,227,194)" fill-opacity="1" d=" M0.012000000104308128,10.621000289916992 C0.012000000104308128,10.621000289916992 -5.695000171661377,5.340000152587891 -5.695000171661377,5.340000152587891 C-5.695000171661377,5.340000152587891 -2.556999921798706,-7.376999855041504 -2.556999921798706,-7.376999855041504 C-2.556999921798706,-7.376999855041504 3.1500000953674316,-2.0959999561309814 3.1500000953674316,-2.0959999561309814 C3.1500000953674316,-2.0959999561309814 0.012000000104308128,10.621000289916992 0.012000000104308128,10.621000289916992z"></path></g></g><g transform="matrix(-0.18503205478191376,0.04947536438703537,-0.03349169343709946,-0.12525500357151031,262.1044616699219,219.49337768554688)" opacity="0.0028397975811950004" style="display: none;"><g opacity="1" transform="matrix(1,0,0,1,-3.4210000038146973,4.043000221252441)"><path fill="rgb(255,228,29)" fill-opacity="1" d=" M0.012000000104308128,10.621000289916992 C0.012000000104308128,10.621000289916992 -5.695000171661377,5.340000152587891 -5.695000171661377,5.340000152587891 C-5.695000171661377,5.340000152587891 -2.556999921798706,-7.376999855041504 -2.556999921798706,-7.376999855041504 C-2.556999921798706,-7.376999855041504 3.1500000953674316,-2.0959999561309814 3.1500000953674316,-2.0959999561309814 C3.1500000953674316,-2.0959999561309814 0.012000000104308128,10.621000289916992 0.012000000104308128,10.621000289916992z"></path></g></g><g transform="matrix(-0.09135071188211441,0.3482081890106201,-0.3589765429496765,-0.09417573362588882,322.9809875488281,285.5683288574219)" opacity="0.003224857091239528" style="display: none;"><g opacity="1" transform="matrix(1,0,0,1,-7.381999969482422,-25.677000045776367)"><path fill="rgb(42,182,255)" fill-opacity="1" d=" M6,25.400999069213867 C6,25.400999069213867 11.7149019241333,35.29949951171875 11.7149019241333,35.29949951171875 C11.7149019241333,35.29949951171875 0.2850983738899231,35.29949951171875 0.2850983738899231,35.29949951171875 C0.2850983738899231,35.29949951171875 6,25.400999069213867 6,25.400999069213867z"></path></g></g><g transform="matrix(-0.12299269437789917,0.2638789117336273,-0.17770414054393768,-0.08282704651355743,106.15096282958984,258.6708068847656)" opacity="0.002885196870809352" style="display: none;"><g opacity="1" transform="matrix(1,0,0,1,-7.381999969482422,-25.677000045776367)"><path fill="rgb(80,227,194)" fill-opacity="1" d=" M6,25.400999069213867 C6,25.400999069213867 11.7149019241333,35.29949951171875 11.7149019241333,35.29949951171875 C11.7149019241333,35.29949951171875 0.2850983738899231,35.29949951171875 0.2850983738899231,35.29949951171875 C0.2850983738899231,35.29949951171875 6,25.400999069213867 6,25.400999069213867z"></path></g></g><g transform="matrix(-0.1952531635761261,-0.2326936572790146,0.07607586681842804,-0.06383523344993591,400.5849914550781,413.7409973144531)" opacity="1.174172851392541e-8" style="display: block;"><g opacity="1" transform="matrix(1,0,0,1,-7.381999969482422,-25.677000045776367)"><path fill="rgb(42,182,255)" fill-opacity="1" d=" M6,25.400999069213867 C6,25.400999069213867 11.7149019241333,35.29949951171875 11.7149019241333,35.29949951171875 C11.7149019241333,35.29949951171875 0.2850983738899231,35.29949951171875 0.2850983738899231,35.29949951171875 C0.2850983738899231,35.29949951171875 6,25.400999069213867 6,25.400999069213867z"></path></g></g><g transform="matrix(-0.2556944787502289,-0.3047248125076294,0.07026926428079605,-0.05896291136741638,245.7689971923828,159.93600463867188)" opacity="0.000009863157523000154" style="display: block;"><g opacity="1" transform="matrix(1,0,0,1,-7.381999969482422,-25.677000045776367)"><path fill="rgb(80,227,194)" fill-opacity="1" d=" M6,25.400999069213867 C6,25.400999069213867 11.7149019241333,35.29949951171875 11.7149019241333,35.29949951171875 C11.7149019241333,35.29949951171875 0.2850983738899231,35.29949951171875 0.2850983738899231,35.29949951171875 C0.2850983738899231,35.29949951171875 6,25.400999069213867 6,25.400999069213867z"></path></g></g><g transform="matrix(-0.6237503886222839,0.054351698607206345,-0.06094320863485336,-0.6993957757949829,136.1537628173828,368.40155029296875)" opacity="0.0028511143927016746" style="display: none;"><g opacity="1" transform="matrix(1,0,0,1,-7.381999969482422,-25.677000045776367)"><path fill="rgb(42,182,255)" fill-opacity="1" d=" M6,25.400999069213867 C6,25.400999069213867 11.7149019241333,35.29949951171875 11.7149019241333,35.29949951171875 C11.7149019241333,35.29949951171875 0.2850983738899231,35.29949951171875 0.2850983738899231,35.29949951171875 C0.2850983738899231,35.29949951171875 6,25.400999069213867 6,25.400999069213867z"></path></g></g><g transform="matrix(-0.16770972311496735,-0.19986866414546967,0.10737645626068115,-0.09009954333305359,339.0069885253906,200.08700561523438)" opacity="1.174172851392541e-8" style="display: block;"><g opacity="1" transform="matrix(1,0,0,1,-7.381999969482422,-25.677000045776367)"><path fill="rgb(80,227,194)" fill-opacity="1" d=" M6,25.400999069213867 C6,25.400999069213867 11.7149019241333,35.29949951171875 11.7149019241333,35.29949951171875 C11.7149019241333,35.29949951171875 0.2850983738899231,35.29949951171875 0.2850983738899231,35.29949951171875 C0.2850983738899231,35.29949951171875 6,25.400999069213867 6,25.400999069213867z"></path></g></g><g transform="matrix(1,0,0,1,256,256)" opacity="0.002885196870809352" style="display: none;"><g opacity="1" transform="matrix(1,0,0,1,0,0)"><path stroke-linecap="butt" stroke-linejoin="miter" fill-opacity="0" stroke-miterlimit="4" stroke="rgb(80,227,194)" stroke-opacity="1" stroke-width="11.413949785999575" d="M0 0"></path></g></g><g transform="matrix(-0.533892810344696,-0.2266240417957306,0.2266240417957306,-0.533892810344696,256,256)" opacity="1.174172851392541e-8" style="display: block;"><g opacity="1" transform="matrix(1,0,0,1,0,0)"><path stroke-linecap="butt" stroke-linejoin="miter" fill-opacity="0" stroke-miterlimit="4" stroke="rgb(255,26,97)" stroke-opacity="1" stroke-width="8.701548259428401" d="M0 0"></path></g></g><g transform="matrix(-0.6947823166847229,-0.08530853688716888,0.08530853688716888,-0.6947823166847229,256,256)" opacity="0.000009863157523000154" style="display: block;"><g opacity="1" transform="matrix(1,0,0,1,0,0)"><path stroke-linecap="butt" stroke-linejoin="miter" fill-opacity="0" stroke-miterlimit="4" stroke="rgb(255,228,29)" stroke-opacity="1" stroke-width="10.451935603006207" d="M0 0"></path></g></g><g transform="matrix(0.6947823166847229,-0.08530853688716888,0.08530853688716888,0.6947823166847229,256,256)" opacity="0.000010554658455106392" style="display: none;"><g opacity="1" transform="matrix(1,0,0,1,0,0)"><path stroke-linecap="butt" stroke-linejoin="miter" fill-opacity="0" stroke-miterlimit="4" stroke="rgb(185,29,255)" stroke-opacity="1" stroke-width="11.072961633543404" d="M0 0"></path></g></g><g transform="matrix(-0.24674415588378906,0.3274405598640442,-0.3274405598640442,-0.24674415588378906,256,256)" opacity="1.174172851392541e-8" style="display: block;"><g opacity="1" transform="matrix(1,0,0,1,0,0)"><path stroke-linecap="butt" stroke-linejoin="miter" fill-opacity="0" stroke-miterlimit="4" stroke="rgb(126,211,33)" stroke-opacity="1" stroke-width="-3.7296016256325926" d="M0 0"></path></g></g><g transform="matrix(-0.1771211326122284,-1.004503846168518,1.004503846168518,-0.1771211326122284,256,255.99998474121094)" opacity="0.0028397975811950004" style="display: none;"><g opacity="1" transform="matrix(1,0,0,1,0,0)"><path stroke-linecap="butt" stroke-linejoin="miter" fill-opacity="0" stroke-miterlimit="4" stroke="rgb(80,227,194)" stroke-opacity="1" stroke-width="4.385829245851991" d="M0 0"></path></g></g><g transform="matrix(-0.13308101892471313,0.5764372944831848,-0.5764372944831848,-0.13308101892471313,256,255.99998474121094)" opacity="0.0028511143927016746" style="display: none;"><g opacity="1" transform="matrix(1,0,0,1,0,0)"><path stroke-linecap="butt" stroke-linejoin="miter" fill-opacity="0" stroke-miterlimit="4" stroke="rgb(255,26,97)" stroke-opacity="1" stroke-width="1.4845370850869455" d="M0 0"></path></g></g><g transform="matrix(0.03736787661910057,0.713021457195282,-0.713021457195282,0.03736787661910057,256,255.99998474121094)" opacity="0.000009195055056920864" style="display: block;"><g opacity="1" transform="matrix(1,0,0,1,0,0)"><path stroke-linecap="butt" stroke-linejoin="miter" fill-opacity="0" stroke-miterlimit="4" stroke="rgb(255,228,29)" stroke-opacity="1" stroke-width="9.028669439122186" d="M0 0"></path></g></g><g transform="matrix(-0.20875337719917297,-0.6828015446662903,0.6828015446662903,-0.20875337719917297,256,255.99998474121094)" opacity="0.0028738140404679768" style="display: none;"><g opacity="1" transform="matrix(1,0,0,1,0,0)"><path stroke-linecap="butt" stroke-linejoin="miter" fill-opacity="0" stroke-miterlimit="4" stroke="rgb(185,29,255)" stroke-opacity="1" stroke-width="8.004477947654092" d="M0 0"></path></g></g><g transform="matrix(0.3726189136505127,0.1898588091135025,-0.1898588091135025,0.3726189136505127,256,255.99998474121094)" opacity="0.0028511143927016746" style="display: none;"><g opacity="1" transform="matrix(1,0,0,1,0,0)"><path stroke-linecap="butt" stroke-linejoin="miter" fill-opacity="0" stroke-miterlimit="4" stroke="rgb(126,211,33)" stroke-opacity="1" stroke-width="8.662815175994094" d="M0 0"></path></g></g></g></svg>